#!OML:ASF E:/inclinewalkrobotboard/Project1/Captureday1/Session1/subject1.ASF
:FULLY-SPECIFIED
:DEGREES
13
root 0 0 0 1.1305880982047731 2.25808299706366 -4.140726445021417
lowerback 8.58274854296318 1.718036793508503 1.4153382198249773
upperback 1.065355725641575 2.437562714003624 -0.02580123317952021
thorax -3.680103478036173 1.2010234929419612 -1.0654899630028727
lowerneck -11.642911734309454 -2.192004305597239 -3.998038349695946
upperneck 15.090675430648176 -2.6483645837978282 2.0377321375865023
head 6.940726221343145 -1.1973701682523696 1.062623745793772
rclavicle -3.3767516563430653E-15 3.3674588591185753E-16
rhumerus -0.3292704916857432 -7.164695428498437 -65.52352973483703
rradius 18.086727774343814
rwrist 38.096662419588185
rhand -10.806142129100309 17.00618211946572
rfingers 7.125020000000031
rthumb 15.150871589323753 -12.687642314664156
lclavicle -2.1137896003660784E-15 3.2925518755249497E-16
lhumerus -32.740404489982595 -14.03842601224471 87.99571418671854
lradius 32.721257830357146
lwrist -27.969258707730553
lhand -1.7631630516944021 20.81689500661099
lfingers 7.079255742665556
lthumb 23.644813147308632 60.149749354768524
rfemur -31.33775830617345 4.700086872795934 9.33945274061658
rtibia 55.043984931808644
rfoot -5.478020913916525 -10.71413613026686
rtoes -3.292903156085843
lfemur -4.166220100537609 -5.20762196922089 -15.151158442503714
ltibia 24.637362356537963
lfoot -17.491708431286852 14.7833191465816
ltoes -1.1026724596652633
14
root 0 0 0 1.7916003731224506 3.7167069168283113 -4.173408311347272
lowerback 9.090731794522629 1.7826527932585132 1.2509135279020136
upperback 1.334746426675759 2.48715166387517 -0.08400285045462474
thorax -3.678326031223745 1.2252724814565545 -1.0476617373293757
lowerneck -11.114290662680961 -2.4185452517064494 -4.167825195953881
upperneck 15.23638085501143 -2.9569160960301195 2.3826082123069954
head 6.926353436581698 -1.3513553113325798 1.1923040519251535
rclavicle -3.397255169170898E-15 3.2840240562009746E-16
rhumerus -0.20531602896095502 -7.475092802667039 -65.36717967581465
rradius 17.69412442293789
rwrist 38.39491412402614
rhand -10.717409939409267 17.18627906415625
rfingers 7.125020000000031
rthumb 15.237497666582106 -12.512417930475742
lclavicle -2.1898848030804883E-15 3.5247934445128337E-16
lhumerus -32.85282531789032 -13.935854288088718 88.01212549972519
lradius 32.416982955728436
lwrist -28.238141918442437
lhand -1.6897172818213004 20.747853368293775
lfingers 7.079281459466007
lthumb 23.715608938621166 60.186264810445955
rfemur -32.44748134298698 4.440300186273898 8.813497392064583
rtibia 55.921580273352575
rfoot -5.036476035876714 -10.692319638799782
rtoes -3.381190105241741
lfemur -4.252547350851316 -5.204592647987776 -15.125866521774315
ltibia 24.705302899778722
lfoot -17.431104720150593 14.738196392979539
ltoes -1.1171987446444431
15
root 0 0 0 2.439060796150923 5.3439167581859515 -4.161949065017468
lowerback 9.590503069566887 1.8224515325030832 1.0311045764884097
upperback 1.6198505919279378 2.499423577705891 -0.13969173786440126
thorax -3.6547728237138957 1.2311466900044978 -0.9926050385521337
lowerneck -10.512427013675863 -2.64264170407199 -4.364836147323295
upperneck 15.543952566788032 -3.2705623372608357 2.7484402381132202
head 6.948473180113952 -1.509536546506836 1.3324816651478497
rclavicle -3.40205736046914E-15 3.1566005700361275E-16
rhumerus -0.3531252381903185 -7.5107066408757746 -65.39607511463316
rradius 17.308235786740646
rwrist 38.64798608901241
rhand -10.557704826729603 17.348941498624985
rfingers 7.125020000000032
rthumb 15.392445299015076 -12.351536390303
lclavicle -2.2008129097776787E-15 3.5752452222111905E-16
lhumerus -32.58027597606696 -13.61736265381604 87.73807094289484
lradius 32.21807027084098
lwrist -28.247781911494435
lhand -1.8022941551155611 20.720271157348506
lfingers 7.079403955963244
lthumb 23.60650757099276 60.17741255107613
rfemur -33.33471795617559 4.323894830585816 8.346717351711789
rtibia 56.48838796253458
rfoot -4.780182125665726 -10.686362937393213
rtoes -3.5499178867983474
lfemur -4.301232184692825 -5.2202913234261565 -15.10780773370564
ltibia 24.711152778638386
lfoot -17.36816558384251 14.713534897861008
ltoes -1.103832701561105
16
root 0 0 0 2.997017074439612 7.138499857778655 -4.105780839482877
lowerback 10.001547223748918 1.8241683707894898 0.750463281504189
upperback 1.8895414576799743 2.459526864081337 -0.18783464227369834
thorax -3.597832835095848 1.2114393802733483 -0.8895679779726857
lowerneck -9.872140989271731 -2.8465763295262683 -4.584912307302357
upperneck 16.10734563181334 -3.5715988090425594 3.111540038935825
head 7.0405685584440905 -1.662397480507313 1.4744884035165822
rclavicle -3.3973821558499507E-15 2.988332686863635E-16
rhumerus -0.5576132201652857 -7.452164963042058 -65.4751260618264
rradius 16.98316889260385
rwrist 38.84814686517444
rhand -10.399546392754754 17.479750093109974
rfingers 7.125020000000032
rthumb 15.545724018521131 -12.221436476545332
lclavicle -2.175076041190017E-15 3.5211560581498565E-16
lhumerus -32.04032294855711 -13.17594081098678 87.27383834060059
lradius 32.134039040095075
lwrist -28.05438408732592
lhand -2.0408426606849908 20.730991077346033
lfingers 7.079676419387997
lthumb 23.375973267469867 60.136753284286904
rfemur -34.0497295897156 4.334850443506391 7.919521297611456
rtibia 56.78632916110362
rfoot -4.663613520845752 -10.691029031955916
rtoes -3.783005089833768
lfemur -4.300029832412312 -5.257033719455463 -15.098416309456125
ltibia 24.638839980652094
lfoot -17.315660650086304 14.720938389532082
ltoes -1.0626311704035993
